<?xml version="1.0" encoding="UTF-8"?><svg id="Capa_1" xmlns="http://www.w3.org/2000/svg" viewBox="0 0 1812.57 1372.93"><defs><style>.cls-1{fill:#8fc0e5;}</style></defs><path class="cls-1" d="m1809.37,1250.42c.05-.19.1-.38.15-.57.83-3.48,1.47-7.03,1.97-10.63.32-2.35.58-4.73.75-7.13,2.3-31.06-7.49-66.29-31.03-102.01-230.19-349.35-464.22-696.25-688.5-1049.35-68.17-107.32-298.67-107.79-366.86-.52-85.21,134.04-171.8,267.22-259.02,399.98-.85,1.3-1.7,2.59-2.55,3.89-43.34,65.96-86.84,131.82-130.4,197.63-15.08,22.79-30.17,45.57-45.27,68.35-87.99,132.77-176.13,265.44-263.7,398.48-14.17,21.53-22.24,42.66-24.33,62.63-.31,3-.51,5.98-.55,8.93,0,.27-.03.54-.03.81-.22,37.98,22.2,71.13,66.94,93.9,29.81,15.17,66.06,23.91,99.57,24.49.7.01,1.41.02,2.11.03,16.79.28,33.58.52,50.38.7,9.38.11,18.76.17,28.14.25,7.68.07,15.36.14,23.04.19,13.01.09,26.02.14,39.02.19,3.46.01,6.91.03,10.37.04,97.67.29,195.35-.33,293.02-.34,23.4,0,46.81,0,78.51,0-7.75-8.17-15.08-15.76-22.09-22.99-70.91-46.05-133.53-121.21-177.85-215.36l-107.06-6.86,5.2-9.23s-.06-.05-.1-.08c.72-1.16,1.42-2.35,2.14-3.53l56.48-100.19c-4.96-18.88-9.27-38.21-12.81-57.96-3.61-20.15-6.32-40.17-8.23-59.98-5.62-32.19-7.57-64.77-3.98-97.57.07-.64.14-1.28.21-1.93.21-1.82.45-3.64.69-5.46.07-.49.13-.98.19-1.47.3-2.1.62-4.21.96-6.32,1.91-11.77,4.56-23.56,8.07-35.37,2.3,27.08,2.52,54.54,7.24,81.19,33.66,190,133.54,343.75,271.65,472.38,54.31,50.58,102.71,82.51,149.35,95.96,0,0,0,0,0,0,.03,0,.05.01.08.02,2.33.67,4.66,1.28,6.98,1.86.71.18,1.41.34,2.12.5,1.69.4,3.38.78,5.06,1.13.76.16,1.53.32,2.29.47,1.81.36,3.63.68,5.44.98.54.09,1.09.19,1.63.28,2.34.36,4.67.68,7,.95.52.06,1.03.1,1.55.16,1.83.19,3.66.36,5.48.5.76.06,1.51.1,2.27.15,1.67.1,3.33.18,5,.23.71.02,1.42.05,2.13.07,2.19.04,4.39.05,6.58.01.13,0,.26,0,.4,0,2.33-.05,4.65-.16,6.98-.3.68-.04,1.36-.1,2.04-.15,1.68-.12,3.37-.27,5.05-.44.76-.08,1.53-.16,2.29-.25,1.75-.2,3.5-.44,5.26-.69.59-.09,1.19-.16,1.79-.26,2.33-.37,4.66-.77,6.99-1.23.44-.09.88-.19,1.33-.28,1.9-.39,3.8-.81,5.7-1.26.75-.18,1.51-.37,2.26-.56,1.66-.42,3.32-.85,4.98-1.32.74-.21,1.48-.41,2.22-.62,2.04-.59,4.08-1.22,6.12-1.88.31-.1.62-.19.93-.29,2.35-.78,4.7-1.61,7.06-2.48.66-.25,1.33-.51,2-.76,1.73-.66,3.45-1.33,5.18-2.04.79-.32,1.57-.65,2.36-.98,1.74-.73,3.48-1.49,5.22-2.27.66-.3,1.33-.58,1.99-.89,2.38-1.09,4.76-2.22,7.15-3.4.36-.18.72-.37,1.07-.55,2.04-1.02,4.09-2.08,6.14-3.17.77-.41,1.54-.83,2.32-1.25,1.7-.93,3.41-1.87,5.12-2.85.78-.45,1.57-.89,2.36-1.35,1.99-1.15,3.98-2.34,5.98-3.55.45-.27.89-.53,1.34-.81,2.43-1.5,4.88-3.05,7.33-4.63.66-.43,1.32-.88,1.99-1.31,1.82-1.2,3.65-2.42,5.48-3.67.83-.57,1.66-1.14,2.49-1.72,1.78-1.24,3.57-2.5,5.36-3.78.74-.53,1.47-1.05,2.21-1.58,2.49-1.81,5-3.66,7.51-5.56.23-.17.46-.36.69-.54,2.29-1.74,4.59-3.53,6.9-5.35.8-.63,1.61-1.28,2.42-1.93,1.8-1.43,3.6-2.89,5.41-4.37.85-.69,1.7-1.39,2.55-2.09,2.01-1.66,4.02-3.36,6.04-5.08.58-.49,1.16-.97,1.74-1.47,2.58-2.21,5.18-4.47,7.79-6.78.65-.58,1.31-1.18,1.97-1.76,1.99-1.77,3.98-3.56,5.98-5.39.89-.81,1.77-1.62,2.66-2.44,1.88-1.73,3.78-3.49,5.67-5.27.82-.77,1.64-1.54,2.47-2.31,2.67-2.53,5.36-5.09,8.06-7.71,0,0,0,0,0,0,4.82-4.68,9.59-9.38,14.31-14.12,17.42-17.49,34.11-35.35,50.03-53.61,2.53-2.9,5.04-5.81,7.53-8.73,4.19-4.92,8.33-9.86,12.41-14.83,3.77-4.6,7.5-9.23,11.18-13.88,4.76-6.03,9.44-12.09,14.04-18.2,12.11-16.1,23.64-32.49,34.55-49.2,2.12-3.24,4.21-6.5,6.28-9.77,2.66-4.2,5.29-8.43,7.87-12.67,1.01-1.66,2.01-3.31,3.01-4.98,61.78-102.95,100.59-217.57,109.93-346.92.32,1.1.62,2.2.93,3.3.84,2.96,1.65,5.92,2.39,8.88,3.07,12.15,5.27,24.24,5.64,36.38.07,2.29.12,4.59.15,6.89.2,13.93-.32,27.96-1.73,41.82-.35,3.42-.73,6.84-1.2,10.24-6.34,46.31-20.24,93.47-20.65,139.02-.38,42.79,11.15,84.16,52.06,122.07.12.11.19.28.21.5.12,1.1-.89,3.48-1.89,6.22-.38,1.04-.77,2.13-1.09,3.22-19.23,0-39.29,2.47-58.51-.52-34.22-5.31-53.42,7.44-70.15,33.09-2.39,3.66-4.73,7.59-7.06,11.77-3.32,5.97-6.79,11.86-10.36,17.69-22.08,36.06-48.56,69.77-74.67,103.27-1.31,1.68-2.62,3.36-3.93,5.04-.75.97-1.53,1.92-2.29,2.88-19.23,24.06-42.47,45.32-68.56,72.94h0s0,0,0,0c188.02,0,366.97,3.01,545.75-1.02,71.72-1.62,118.82-34.25,133.97-81.22.78-2.42,1.47-4.89,2.08-7.39Zm-559.85-250.24c-.37.51-.74,1.01-1.11,1.51-1.24,1.68-2.5,3.32-3.77,4.94-.18.23-.36.47-.54.7-1.44,1.8-2.9,3.55-4.37,5.27-.38.45-.77.88-1.15,1.33-1.25,1.43-2.5,2.83-3.78,4.2-.3.32-.59.65-.89.97-1.52,1.62-3.06,3.19-4.61,4.74-.38.37-.75.74-1.13,1.1-1.29,1.26-2.59,2.49-3.9,3.71-.38.35-.75.7-1.13,1.05-1.6,1.45-3.21,2.87-4.85,4.25-.34.29-.68.56-1.02.85-1.37,1.14-2.75,2.27-4.15,3.36-.43.34-.87.69-1.31,1.03-1.68,1.3-3.37,2.57-5.08,3.81-.25.18-.51.36-.76.54-1.51,1.08-3.03,2.13-4.56,3.16-.47.32-.95.64-1.43.95-1.76,1.16-3.53,2.3-5.32,3.41-.07.04-.13.08-.2.12-1.74,1.07-3.5,2.1-5.26,3.11-.5.29-1.01.57-1.51.86-1.62.91-3.24,1.8-4.88,2.67-.24.13-.47.26-.71.38-1.84.97-3.7,1.9-5.57,2.81-.51.25-1.03.5-1.54.74-1.56.75-3.12,1.48-4.69,2.19-.39.18-.77.36-1.16.53-1.89.84-3.78,1.66-5.69,2.45-.5.21-1.01.41-1.51.62-1.55.63-3.12,1.25-4.69,1.86-.48.19-.97.38-1.45.56-1.93.73-3.87,1.44-5.82,2.13-.47.16-.93.32-1.4.48-1.59.55-3.19,1.09-4.8,1.62-.56.18-1.11.37-1.67.54-1.97.63-3.95,1.25-5.94,1.85-.38.11-.77.22-1.15.33-1.69.5-3.39.98-5.1,1.46-.6.17-1.19.33-1.79.49-25.35,6.88-52,11.03-78.98,14.27-17.75,2.13-35.97.31-62.49.31,28.5-93,69.26-169.03,151.55-212.16h0c2.52-1.32,5.08-2.62,7.68-3.88,1.51-.73,3.07-1.44,4.61-2.15,1.12-.52,2.21-1.05,3.35-1.56,35.48-15.83,75.25-23.23,104.27,11.52,29.59,35.45,18.75,74.8-4.43,109.11,0,0,0,0,0,.01-1.35,2-2.73,3.94-4.12,5.85Zm-646.14,36.29c-55.45-41.04-76.26-109.2-46.73-149.08,26.71-36.08,92.35-33.9,147.79,7.65,65.04,48.74,104.52,114.42,125.33,198.45-86.4,2.38-161.3-8.83-226.4-57.02Z"/></svg>